<mxfile host="65bd71144e">
    <diagram id="SNOWma3BO_aSqxzd8PqV" name="Page-1">
        <mxGraphModel dx="1198" dy="652" grid="0" gridSize="10" guides="1" tooltips="1" connect="1" arrows="1" fold="1" page="0" pageScale="1" pageWidth="500" pageHeight="500" math="0" shadow="0">
            <root>
                <mxCell id="0"/>
                <mxCell id="1" parent="0"/>
                <mxCell id="2" value="" style="rounded=0;whiteSpace=wrap;html=1;fillColor=none;" parent="1" vertex="1">
                    <mxGeometry x="277" y="137" width="200" height="200" as="geometry"/>
                </mxCell>
                <mxCell id="3" value="" style="rounded=0;whiteSpace=wrap;html=1;fillColor=none;" parent="1" vertex="1">
                    <mxGeometry x="304.5" y="164.5" width="145" height="145" as="geometry"/>
                </mxCell>
                <mxCell id="6" value="" style="shape=stencil(lVnJcls5DPwaXVHcl3Mm+Y9UxRmrxmOnHGf7+2mOik8ioNeybrIMkACIbiw6xA/fHz9/ezgE9/3t9eWfh1/HL2+Ph/jXIYTj8+PD6/ENnw7x4yF++Pry+vD368uP5y+nv799HpLj078vP8cJv096TlIbSsH9OX1RqpT0/zefTvJPx+cLeS85a/lY9+Wj+LjKF6l+Xz5J6EY+7MtnqVXbE8j58M4bfzPx14lPWqETh30UZyKaG1Eo4o3LjdyAN9M3pBmF6woIqnq0II44HZoUtyjkJqmQVw4zJptCmol1XQFZs4Y1dZ4XXuKaSCmJc0QhSwiLAu5kYYUBXikg2YnTOUheTUI2NmJSzvO8TcFJYDc0HSWfJcV9heLFr+mN/O3EpBKlrblUZxSuyxeJqzxyiwS1tPmqm8vUgep0InlxTD5q8IDQCH1VxM8peU/ytFZt/wa+6/JdetbyxP4WZhJfyBMYtKSx7ygKWrlyPpPfMHKWLyQfWpeyyodJ+FflO2C8xjNRf3uQqshRCjsfx62I6ZM3rstnTe8+TAhdV0BAV4MAydKpQl9fwHfJTKFpF+BzJm8GhbrSSkwSCa30rp1OgBG7oUtanc5eEotSl7aaBGZiZdw7pxO1+nnG3hWKKRq4g0AfCnG9AckYeFxVr4Ds6uzlsiajC7f20rWvNecc6j0FhbeRLhwQqsGDlZXUfihEdUOgJWQorNkEUqjcB8XBYKnKfcjqhg3mewp1ZeHBsyxf8/z3RTI1FqWs+1QoFFIYuqn9Dd0FQcR4JnVDlMBvUKWnZdoWDipTYQWTsLAaBSCo3WUSXuZGWJXTfWsU3xnWQW4sW83DDSLhN6jUgAINq0m+M5G8M70RaDYxWAD1eCdEO9KbA0iRABoDxt+WZgBR1m1bIgNEy11UCQDRVsOwceO9zP0KdQ5FW8260W1gilpTo5ZbJSip6bNwADXxahCrdIiBDwpxmKs68wGAXH0YsxzzoegoRUdnhkECpgG6VUXVkOHpjA64qC7XN07GQWcrur7A3gGtxToboq/MxKTRSJvJjQ3Eo1NXNDMH3ndOAo3izU4anMXsJMPl7aTUaGdvJ7FGC+6Y9LQ860owSQbF87THQHuq6wK1f0zCKoVwAnmwYnCDFGrsBhSB9cXGaMKGc69XJBhN2HR+3gJtQMOdbIGxzUabAn+FHOb28XKWIUBLXQMtbRu7vb1QXJ1Oha6qkp8x2SgVRrJlGMrCekPeeP+6Qpwt/MbycXYpu/s5NV7xLSym7GimK9YmjbXI6gPwwWYfXzR8UNrYw4096ZoaQHgiJtlNbG2Ug82qF/KMgs0qGRTFhgazqoY8m9PNKnzIk/PNqh32s9pvVvnDX5LYTvd4kE+EkLZd5cWDdWqPN/Ks2TFr7VroKt9p1IDy2VbbbhgibeStfKAwtvb42Yy901++LDDxLJ0WEPNeKEGs7zL5AFJh6+x7fzq6LY8P59+pvh6fnk4/c13+X/+uha9Ov4nFj/8B);lineShape=1;" parent="1" vertex="1">
                    <mxGeometry x="181.36900386971" y="190.5002687362636" width="131.11962049903855" height="11.626150875127564" as="geometry"/>
                </mxCell>
                <mxCell id="7" value="" style="shape=stencil(lVlJchsxDHyNriiSALezk/zDVZZjVRzLZTvb7wNG5lgEZ1rRTQt7SACNBsDZ8c3rw+3zfhfc69vL8dv+1+Hu7WHHn3YhHJ4e9i+HN/204887vrk/vuy/vhx/PN2dvj/ftpXt0/fjz/aE3yecL1RKQwX35/0XTyn9++XLCfB4eDoHROJoAdEDgCcJIyBQlW1AppzG9UI5bq+PFHlcn0nc9vpEflwfhKRsry8U8ri+Uq7AYEfJDwD2FAIAcHfgGQBZoAbGbAHvv6wCgiMnFpBB0EKg4iygIkCkMkaNA3l0pEouWoAAL7UDTIAIeMRKG7aABGxg5c20QwLM40q1XAMQNXE+EgOAUJFrbJDaqXbuJcClKOQmgAB6x0TZGM39EeuA2gXlDFBQgs5eEkpghxTJmx0iCSBfylRMpBMVEIfsiI3RhRjskFXjzJEWsqwDlhN3gHhIjVxsTgtTQDqmujTaoOyqQOoLT0fKFMCRSiJnABXmQym2NkQP2VodlVEqI3fhWQeoCIxe+qDjOiATj0dSdiFq1NKrUwdo7BFba6U4UkNDWZHcO5XvUY3V0wGogJ6p1AGgfkiAGzURG0DtZW8dwL1+LFX345TrsRZbIfQZEZFDOtkWgO/B3OKrEctSSTDBDTnUrxcyoo7k0EMivurfRjdK6PxaB0SbQi1tQSAUUEduZG1P0A7JplBeCLkOyFY39EiIfS2rx8AVlTLkJeX/yD51dAQ1SOMaDEDdgLw0Awqscgpwo5ea9CBAsWJZA+yY1K2mPdEcZUTvNCVQ7CVgkxrJ7lCRfmsd9RaASrvS2+i3Gi3IaO6t/5lbw3UpmmHz0ETAkE8nFpyiwYgrXxQyIwKePBKyaAcCzbiKAKmLynmKojgsE8/5DjjjrNGeHIrDtYA6K5+jiEoQ93lhsYH7iLDZC4zUSKWL55aXTJuYGLcn0juwBXBByILtvrXbQDmtYTLaGrX/QF1ftu16VHYBXcrSE3IBCHRr9l1JF8DSj68309X2DtH19nqr+zY2aJuImukkvQQugEIeuDVNNmjnyoB8GqYwUkMSLLs6BUmxAId2mOYsibARnSe5BkDD5TQrKgANyPM02gBAZuZ5twFAPswTtQJQ2Z1n9gs2zLcCEuGAPN87KCADes83GwpAk9x8d6LUQGNTu51hC0AZ1+7gZrYigLcjuAKQW1XtJyqhO7JIwTg1wMZBXWQusJZbudX1zkZZT5hB8kwDk9emGI1Y1l7vSBDtLE0jlvleKpfjQzXSzc2Y4WGjN9/Jul7p1tdPl754dFPnsV2P7vZ0fbHnQWKqf5srVg+vb9rjnPEn0q0wdQoM2dPoNsYrQnbO63F2zefJsFub7a2w4Vzxp+vt238GTBXjOka0a350KX71e4bLAP3w8Vrj/vD4eHorcv6/fQ2iP51eofDnvw==);lineShape=1;" parent="1" vertex="1">
                    <mxGeometry x="270.09096608929485" y="203.12276059644023" width="41.89415945461201" height="15.04144389716771" as="geometry"/>
                </mxCell>
                <mxCell id="8" value="" style="shape=stencil(lVjLUtxADPyavarmPaMzSf6DKpawFcJSC3n9fdq1GeOR7SbcFqP2jKRWS/Ih3rw83D4fD8G9vF7O346/TnevD4f46RDC6enheDm94tchfj7Em/vz5fj1cv7xdHf9+/l2spx+fT//nN7w+4rzTkKcUMH9+ffES7w++XIFPJ6eFoAmNYz2WVzZt6/i6mAfnJS2b58l+dG+ia/79kWyDvYRbyD30X56t0+IQNq390nCeKEUpZAA+SJtjGhK0jIBaA/4DMgSSYiCl6oW4IkPIUlaXcmTICFrwZwQpLl9QHTiRlokLyEQAN438iKqKLlSLOLVAhjxkFcdnY5NGolSKtYHADIBZLhYLcApARRJbQUgUSqhp2kBKJ4AWo/6MqyESzVJcTbTjBrNSTKZxiuI0w36kEZApXloyOt4JQS6kALSIHm8EgIdyQkKiRi5VHz3ahtQe8nPAJxA8qAqbcx0zbQevHPW65a6tG0fAXKOAHVSiVJqsVKMOHjCDY1dhmZA60KyDfDWB8QhMzI1e6VFHLb5OnNnPqKIcoBP1utE4lqLlJFNiENiJTSTbQYgDh8CNC4005UMN6CGJBGT02PTApmYMk1hNScEWnO12Sg1L8oA2tvy4gRH6AqhCdkClAmN60RYOF1IzeHGNg9FKkkcAHmUAWhVYPyGrIw+6Ny79wDeVFDqT/acNtoHerM+ijxUU9SVDljItCYLKKzi2sqH2meoPfJFE6XSe8ZePdRqo0RPKHaqRB6UA6IpIExpXDVMa2/v6FLpF1iwtfIoZVMPURwvUUvvwEVAeztY1jTr1OueFSg1NgGsyUEYzaiLKDXWFX3/9wzIVGbAnLS6Ej0B1BiFDJlh/QHtw+hSUToLwAczfZdEGwqiZHpc1j6abgOSZWvO/czdxI1O50BPwFwZzZjI53tMrnZMbJTe02xsFrNKARgKTQFh4mf0xthpWhZOYE0R7zPLNJx2pKaxJJmlJrt+yb0tqKzzwACxTxYzINJRF5ucmmGad9GwmuGmNYeIQMgrLvG1CfuuGrZimGA7u3YiLACN+ICd3a8AbAX30WorfIjsBGdrGlFqTO5XeUv0u0y22g32sqBilDHVE6SS96+UO3pKPGfHjBD78LSd5D7QzptApXtotF9ZvKc6Xyzp0jvhL2P4PU1v6/rczR0d6Fvfit7MWa7UVhjfkbBzWfPAuOys8jo6G8E+2dg0kinY17G4Is0U7NWmin3RmxJvipd2msl+pH6lCyHu08zmQjcd2JtPkt7RUvnwN9j/AODH2yff+9Pj4/WL8fL/9hMxHl0/L8fPfwE=);lineShape=1;" parent="1" vertex="1">
                    <mxGeometry x="273.2601197630963" y="220.1183580323608" width="41.8451319208466" height="13.939262921790714" as="geometry"/>
                </mxCell>
                <mxCell id="9" value="" style="shape=stencil(lVjbclMxDPyavGpsyddnLv/BDIVmKC1Tyu3v2UNwOJaTLX1LU29sSavV5WCvvt6++3Jz0PD16fHh082P4/un24O9Pqge729vHo9P+HSwNwd79eHh8ebj48O3+/env7+8205unz4/fN9+4ecJF6OkvKE0/Pr7jUnRP9+8PQHujvc7QJNe/flKzhfROJ/PYun6efy3TOfVJJHfr1Lm95hKydfPxyBpvsCaFCMAk54mQFJpgQCqpNnklCS36wCNEucYJBtWXQbAqe5JUQJ5knbRNhvdJRGj4URng1WpxAbLkl0cigQGaFJnGyyJkSfB60FngEkgTErZe8mi9E4AeFLwAJYLOUozD2BuzUl68wAjXsptkHkHyIQaRaU6eiOUDFA9+eDWSrhUYbSzIUuJBFCWSDdRkqINPnEJhAwhkW55ZPA+40ikG9jfZ0CTSOLQdbB/ALLSSHfo2HxDLsOqy4A6wjQAJYgyXQph5PwZ0SiZevd+rX2o+WVAGYEdgFYkMoB5nelBKjECgXA3dKQIcRMekGd+w3GN1YcuYQ7EznGXEW3o0PmKTtlUUYPcm9qI/jVAdDfALOImpFBb3KTMhjLcfgZEWha3G2Y3ITQs52CDOkCRzm5AnGaCI22V0BVxyDOZGq8QCLUlD4hMBsIoUTtAI08CoC4JwbIaUhad0aAG1740V7ktg5gNK8Ceu8E9CVrFSvtq9DMpt7oVCaRENtbAAUC5tFADAKoCC/mQoo09aaE3jFZe5VwCwa3hmbLoUlQlP3ODIx+8VF4iM63SVncVMqRoZTcsUokEygywqPGWoizSLwUgIV0DBMKzfgb5FWbywSo20XTzGVchZMRoiHubC3VVWuQg7q7VLXlE5jIg+imoQBaI0W3pvtGedCYC2T8pGzUaItDmvjKH8RPX6G1uCqq0+0YjWma3ouMvRCpL8bMr2sRK4oBmuqgHGDF6a9eLB7C+Mp81YgdIbDzGCBM8gA0EqXnl24xmU1D2XEqZdjMYzLKbRguVmW32nNUbjwzkBoySTmbAJdb+YISJrvtW2jpY8DKDUS2xmb1KmCONBGJNoia/CAFZMom0LvTGQMA6sogqugA6W1ScG7adarD2PiY/Z+EGRo0YRt3feYnqkgQnGkbTIfk4g9ysJEZPVUu0b1jer1ki+f1lJIOPacyW6kZnPvMcUtomZT/lRrqSWVZ7fE5aV4fgJz/vFmlhEPbyefUjdKDNOc5Xby7d00Ek3I6LFiicd11qGqvEa+edfwrdV63nK90Cru/pdK2y2ov0ZJ3RBYcihMxDS8TwTWMmL5SIfNv74nX1fwDw4d92/MPx7u60XN//32/T8dVpE29vfgM=);lineShape=1;" parent="1" vertex="1">
                    <mxGeometry x="273.0359655806078" y="245.11469366041183" width="43.33943730258966" height="12.908328352914396" as="geometry"/>
                </mxCell>
                <mxCell id="10" value="" style="shape=stencil(lVnZUhwxDPyafVX5kK9nkvwHVUDYCgEKyPX36cnGw1jebXbflsE9lqVWy9Ls4tXr/fXz7S6417eXp2+3v/Y3b/e7+GkXwv7x/vZl/4Zfu/h5F6/unl5uv748/Xi8Ofz9fL2sXH59f/q5vOH3AeezNL+ggvvz/4mKi/+efDkAHvaPW4BKTRbgCwEEcdUCkj8NqJNFsJFskCWO64OXGk6vV1Ed11dRcuIirtn1mbzfO3HFAlIigNj9sQU4AshSwmQScalvNmgLgPg0xCM71EYAVbw5QxNPANF1AzYAFoYYxVcLYHGISVqzgFoJAMwbDw0jvRImgWjZAtgOqtak6PuexwFVotkBbiCA5KczYE/i1pRER7fGzAHwkhsBlZ4hBwljwqmjXMpJchwBUZQkUF65uQLwCpJAJUg0gCqBBK7gfeMZ4GhHqFGQX+MOKUogJlXfj7gCUk+p4wDt+bUCEDjipZqljoFDKAsDtG5xB2QniVCjeYljTi+xJ5FuqAQjW7NKJFxqRfzoJcTeEbe2ajOuIA5UvV1/YUdUrgKtSTEAZC0hE2yK46kXPzC/JivfeEVmO0AkRtmAkSyDmpOmFlAY+1bqbABMBcDvOO6w8fRxhOtFcLNFIlsUmKzWTSxyAFg3rTXjVFabFIKnI3ETAIYb8DTjRpmkrBZRZlKTOIolhKFlCmij4NcojsmAkzJmNWLJdsC/c7CAyiIdrPbhSSKHhsVGBnDowM4Q7W0DasgqBAAmIaCGehGgochcZBLI5znAHBpqyK6Js1vbSvgzA7ck9UXUWGSDs9WQr62F8kx6N1x+L0qgxqlxJEXXMnamCNQPGohJZmqihXcWsoUsTI0nqUTsWZWb1RhP6F3gYgAC5yyA3Y2RLk7tGRhb29TILY5mRS7YBCqZBu69jq+AQMkHUXFmB9dDeSqndWRr5vlQnaVGzlQqwVY3Nma4YikrWWqbGlziHMsHbxMotX69PnVdD6Nbl5srcWteW5gVoJRLeTYJBYUA0tRnJUeHCDDACJlybUW/oKNUapFCyIeOxI0maaYigObStBwAOGKSTnKPtikRts4NMgCeddRTCw4Au4fOTT4A7B46jxEAuGxQAS95Eod5FAKAEi/Nw5YlcGz+M41zdH1y5sAIgMqGdtNIatmBUCPbhFOuMrGn45YY7AR993W9p0q8dmCbqQYTsamHg4Wsv0cmjPZ47YJw6rymotNhV7bx4uW82YGJp22MDza6vLGaR7iO3lTnGbHrM6Pj64stm452q1hfgzlvIM731c4lAvU+1pspQ6TkwXpTY1eHnVpv/PmBQEzrKy2wsz2t0/XM83oQiBFicigoxcYwRyIW6SV7oUSxAKpYF3+X+BiAH++fQe72Dw+Hryjb/9vPJnh0+OQSP/8F);lineShape=1;" parent="1" vertex="1">
                    <mxGeometry x="270.30799930132116" y="261.0455002252412" width="45.49717708482967" height="13.155113480178898" as="geometry"/>
                </mxCell>
                <mxCell id="12" value="" style="shape=stencil(lVnZchQxDPyafVXJh2zrmeM/UkUgW4SECuH6ezRseVjJmU7xtgzqGUvullvOqbz5dnfz9faU+dvz0+Pn25/nD893p/L2lPP54e726fxsv07l3am8+fj4dPvp6fH7w4fLv7/ebJHbry+PP7Y3/LrgVKmWDZX59+VJEsr975P3F8D9+eEaMIibBzTqAgCdmD1AqSQAEBL/hZxJ0RcK9eoBnaQAQKLml1QyzGEoZfUAe4IAVhNf1tqoMgDUWZMJkEIDARINX6WWqIxjQLeq+xzaoIQAjdRXqVuhGwBUqv4LvZNmAMiUfJVGplKPAU0p+S9YoRnsdGuUfA62lahKLdPoDqCZRI8BsghI69yZlwEtCkiNLEAPkql5epsGC1hS1VjWxDxF+DJC4s5ZX+joEznS1daE6Gp6SSlmLWAjipAODzBBAG6UQhwATAN9gaOoR6cByGRdpfudM9V2BBAqgd/WeYAgcpmK3BVk9EKARDlotMOybr03AIyPgH2pUxEPMJkjgEyB7QBrVYBLqcQqmczhkhJx6GSVEjog4gkkgyqQqDU+3wNMghW8X4h9iazZZ5Bxoex5ZOpAtGCq4XxT2JN4nuB7/KAG8uXYL4zpDN/PYT0ynxzF+/rbgY50Y/HZxzNseBx7SxqUgQisPn79ZmEaIBxPwl95JIH1FI3xGdan9xjf4Pp1WT9qjWmxbAPyJy18YGiP0lTfHl/msXsUH/gg8FBOC3+sKQGPytEaGf8HWD/Pal/pC+tFOMZjPpcc47FeUo/5Nphv2F+rJzJqPNvr1X4J5H+Mtx3E7w98HpOxR/kGvfSp6KN6er6ZXtDBzXMauNYjXH9f9I76///Gl2XA6XA9skwfFda/R1NQGb7fZhm//u38QvpN8QCTBAlnR3w4wcwFV9SBrIBekrIblyObUr3GbBxCmtyMkCdpMx8CctisVgAIJcDq9Zi3aURBm7N9rosRykAHttEjeLMMR2uzvNGbCRxLzVQnn0MfcytfBrTohczyorN7Gwx8Wc1UJ2CG6j4iXs2ABQEktmvz+YhLNj/xMhig/rhNaOELAi2vtNhRLWmkONG4ca9NynnObztg78pHk3JYUsemoi1V6gW6ahsDwkRnr+joAqLGPt9w37YV96UJoKRtugr0ll2DR7cuLbTKARuZ7WucDRh6zdHiKF6wWR66uGWBdyKaluMT2wvd93UH4KsmlThkCkxB27w72FOAfU97ZBLDoVd1dvZ/8eg6xOIlhXjkRyy+SYiHBdXF8MP5z+LDpVQmRfXUeV+6kw72ry0+DNTwDvjqOmnvLq8VKEzUCi8Gt/jgqBJUzVYhLwKzHIwsjy6erU4XesiJEQHI1P7/zfrrAPvx7yL/4/n+/vJ3gOv/jxf/9ujyR4Py7g8=);lineShape=1;" parent="1" vertex="1">
                    <mxGeometry x="176.19866218040488" y="276.3877556688326" width="101.41345720363029" height="8.017258518379322" as="geometry"/>
                </mxCell>
                <mxCell id="13" value="" style="shape=stencil(lVjZctswDPwav2JAgudzmv5HZuLUnrpxxnGvvy9UD2UDsjaTN1nGigQWx5IbeXjfPb1tN5Hfz6fj9+3v/fN5t5Evmxj3r7vtaX/Wp408buTh5Xjafjsdf74+X36/PU2W09OP46/pC38uuEbMEyjy38sLptT+v/h6MT/sX2/MgxAXYx9J6rq9fq53Y58pFWDfKdr9dOK0bp+YYjL2IVFFgELcLKBSCeuAHKlYDyafEEBdcCFKJH0dUDQk1odYKYEVaqBqgyRMApyu+r1sAUICaG4aRLGAShzXAT1SiAaQZubvA8rIgxmQqAnIPGafqkqNMFgiU7ZO5EYBeV2o2T0VXQHsqWbqDlAoI+aYQrCARg1sqQh164OSn0Bcc/EFVxPFDAqi+gqqnSqgWjolu6WWYVg1OZsFKPkRREkBbH3oWqMgv7WL1WoBDSZTXESpd7xCom4r6CYf7yOiTyZdon3QKsUDEHOhjxq+8ToC5kIjKZ6IBpJJW2N3K2TYynSF6AACnVYfonM6wgrSKFXbaHoY7XONh2JLrvPIljWqXcNXQEaAQjV7AGS6je/d+FBQunbfZzRKFZecL4hEARAny+TLVHGNJhfWCleIi7Go2ZpQlLTmHdPaeUB6q7QoyQM6CqtQXgLQlsIdAMpWTe+WvdNIbWgBFfFhFSCYFMAL4jroSwoITmElKOE+DZBZQs4TpQ39cR/QFkMuDoVzf2alMQPnMTrrxvtTkQdNN4Oa0RhVueMAAnvr9Lf1oTDUDrpjFyVdMyMRp7nk9I+uCXxQOeOacQ5QuTYdWU7EVSxntEQXIi6C1FD944ibBDxIjUkbWx5UiKKuoRLPTXZJWDDF0VRmQIAVN50gbG/Vfh4A0yqYxDaBSU2gApJx5pkBShyecdmpE9WhSAkk32aCjklE3GLqUkbix6dqhZ07jCPbXDtwfvKQzFfzAKLDo0quR1BUNotjBu52PM5Fc/rAsxsvcgFmJ3sBpkIBScIRt+tpvgPz6GUFQ5pmCXE1D6jp+lrHgllV1OLroKo+eXHxobk+XO9IXvaHw+WK5fZ/f6eiry73MfL4Dw==);lineShape=1;" parent="1" vertex="1">
                    <mxGeometry x="223.1439911092889" y="186.13938266164223" width="15.847250335353692" height="21.77856659519182" as="geometry"/>
                </mxCell>
                <mxCell id="14" value="" style="shape=stencil(7VhJbhtBDHyNrkTvTZ4d5x8GLMdCHMuQle334URoacjRlGHAt+SmhTVsksUipzf55vXx7mW7SeH1eNh/3f7c3R8fN/nTJqXd8+P2sDvqp02+3eSbh/1h++Ww//58f/r+cjdZTp++7X9MT/h1wrVMsUyoFH6ffqnE/PeHzyf7p93z3D4SZ2MfAwUAqEyhWUCjkgGgULIeUqQg64DSKYoFdEoFAAI1e6ScKYMY9O9YDUAfEQEgaQzdAhrlug7QnHS2ZYgwrULVOqiZGohZKEZv34G9ZlC8PXdQNaphcR4QsD5tcZ6YQEZH+s72iRLITxz1meUzhXX7MAhwLpiQgPwo6W28hak2aO8Y1AenVuyrbctSqYMmiKOnzvZlMGQln83Fm4fH6z1DydarpMHYFT5I8vY5gvMrgD0AHWg60SJDqAK5+JQqJSI4UhZ/JJUmATnVA3gtZRLgQTnvPLRGEWhjC+N5A9C1kKBtWqVipa43YpAlfV63heNIFXiQRGyVgjsJYLZUyjZLzFSQdHUfA8tQm+sAoWCbQVRMkQcZM+8MSHAKKsDRWwox9hBtDKKKD6ihQTcr8MJDktfS2qwiqc+CCpe9RMqZ8NcBYSj6HABi0LqmhYcEjsQ6JF3hOjwSF99AmtaMPBTKlq1auIJiKKO/ZtQooIG4jjl8BoRRyuuAvuiHN7IkQ+dmDYRmoZ44OA998Pc6QKWyLjygjlNRCT4GtLMpmSv7LBUEED+wNKqENqqwGNEaVsQu3A6jYaEBMXWkK3Ufa81amlypJ11AeS0Uogcg+VahK5bfszx8EEJnlDRfCgZ0quInL+NlSedsdHTC24wua25d7UIdARKJA+g+jPbV4t97Wof80w0o29Lp8G5gtusrAFulqUo/EMP7V/q8WNH/r/T/9Erv4v3glT6MbXn21txAQiN7YcmVEgCk5hcMbYoOKDG959sjKWvRwq0n7pbUsY/lcu0dwLEuJthlSkq3P/cxfK9XIfq2zHDN06ZyNE3wrkPt3SuG8hCphI4oS4sAVajWsaBd7NFljYpgL84eTafKntYBFkyHU/P2aINUFefu7FF9Wxyic8knuqhp2oTu+musStft81gWL3yAz9cWsE1WqIMee/cF4Zv2+uFyG/mwe3o6XWbO//e3l/rT6eYz3/4B);lineShape=1;" parent="1" vertex="1">
                    <mxGeometry x="232.57113898916054" y="274.11693653300483" width="14.703912798507645" height="18.994185737154453" as="geometry"/>
                </mxCell>
                <mxCell id="15" value="" style="edgeStyle=none;orthogonalLoop=1;jettySize=auto;html=1;rounded=0;endArrow=open;startSize=14;endSize=14;sourcePerimeterSpacing=8;targetPerimeterSpacing=8;curved=1;" parent="1" edge="1">
                    <mxGeometry width="140" relative="1" as="geometry">
                        <mxPoint x="290.82" y="299.5" as="sourcePoint"/>
                        <mxPoint x="290.54" y="164.5" as="targetPoint"/>
                        <Array as="points"/>
                    </mxGeometry>
                </mxCell>
                <mxCell id="17" value="" style="edgeStyle=none;orthogonalLoop=1;jettySize=auto;html=1;rounded=0;endArrow=open;startSize=14;endSize=14;sourcePerimeterSpacing=8;targetPerimeterSpacing=8;curved=1;" parent="1" edge="1">
                    <mxGeometry width="140" relative="1" as="geometry">
                        <mxPoint x="463.11" y="169" as="sourcePoint"/>
                        <mxPoint x="463" y="305" as="targetPoint"/>
                        <Array as="points"/>
                    </mxGeometry>
                </mxCell>
                <mxCell id="18" value="" style="shape=stencil(rVnbbls5DPwavxKSqOtzL/9RoOnG2GxSpGl3+/cdwdCpD3kyzgJ9cxyNJfEyHFInffft/tPXu1MK316en/6++/f8+eX+pO9PKZ0f7++ezy/4dNIPJ3335en57q/np++Pny9/f/00V85P/zz9mL/w3wU3hqQxUSn8vHyTVerlm48XwMP58RrQRNUCciKAIt3skCVEAsjr964AuRJAklbskbQRQJBhAFEyuXQfEvaX1iGRHKk3CXkPqNLIpXuWUfeALDEQQJJujhSlsB1w6bADpEEv3XBpA2iSOwE0iXvHpUpjqRVRBygklhpiM1pAI1ZqSWK0d2COa0F6sYBG7lCHO1IXJTtU/HtYQM8EgBM367jEdqg2WgGoxHF1S8gtloIUJYAowwDiMvQxIEhIFsBCozTpfQ/QdatjQF0nvkqgTEigFHfpsmjhGKArNjdAk8qOBCsZ5guUKksQ3R9pkjHxdN5CbQMgWomnc5W0N2tJNONAvXFPZPAMc1x2l64qiewAJm37HepGPMeAtqrBAjSQJ/ED/Br2CQRq62wH2GQPAD0nEt5IF5OiKACJxBJIxbA3SgyrD6nYI6GINXLppLawj7hceQyI1koAKLFS7DZFJ4BEa6zSqwVUkqLROQ6lnjFfRN3vFtCJH2K0ZXcg40i0xs3qGwA0Q6w0LMtMPUTc0KxaGpUGd7XlZ3Tq5iLZnH+sqn184aVC1voYAk3PYMXY3IBEdnAH4hoAqWYMxBksWCWG1Lyxfn9hKC1WeLB+H3INLiEhF1YEb+sRg/Q8pq5NAUF/3yQZ5IAS+8fFzlfrmTyHyjS/36iMjFZQQWIVUqKSI2uwO10f9/aH0E0kPv36Io3Y351ndg8kwdx9kfBK4sfZEwmc6XrjL+TXoPloSRdikK438YaOrxDOdfEMBh0kHly+dK5mfT7qqjtvy/e2Ce638QmaDL7e8BXkCl9v+BD5xcSHI9xaltj+I+tdAbhxHldgkO+NFG1XwMBXLB5cgQQ/BCYKXAVuvPH1NR5dYWKM5VQEQiIwFeEFptLOwCshkBwjLa+1AGAsMdWc20EZzUEvOt4NxEpTkWZ7aUrszWYC/JCJWdVRBVKtMxmO3zOtRKXchRbR9LHobDuxkm6yfmuH6jLDa92NaRrzoOmJ/skPsyJr6dQmnFYa3rnajLsxT0CXafyAosgkBfrYsL8DMmSwXjzaHhBJy4oUenE1sURVdcm2Khc6UoRXdZ8NSkmpuNiOdL2fh3BR7QcuXET5iU6kY6+DkREVgQczKUpHB0OvxYCvTtWSsT9rLf3YTqlIm3NBk5aUsJva8xRJbH2xU/JCu/W2TSU3IqJsPWezRrXQjJzDX9M10VEueh4TbzMhCVdDRBvZhSrKLIQuzAyWYpbGRurDugxVlMXEiI6FGqXeOSswOww6QvQvFVPtMa3j3kKmnCdx6l9bEi9Q/j3nd4PxGsBM0+YOJDSGS820PUW8BmhmB0gRdulhxc7MBg4wCi91+ixwNcO4mkdTTXiA0LXrGw+FulxICvlra+fx6gybA20Fvety4m93Ljhuvaz97+fE2wB8+P16+eX88HB5/Lz+v33txFeXl1L98As=);lineShape=1;" parent="1" vertex="1">
                    <mxGeometry x="476.3038806470722" y="197.055511366862" width="92.35067675839309" height="5.960334640451492" as="geometry"/>
                </mxCell>
                <mxCell id="19" value="" style="shape=stencil(lVnZUhtBDPwav6rmPp4J+Q+qgOAKwRSQ6+/TG2fWHsnbkLdlPb2akVotadjFq9eHm+e7XXCvby+Hr3c/97dvD7v4aRfC/unh7mX/hqddvN7Fq/vDy92Xl8P3p9vj3883y8rl6dvhx/KFX0ecT1L8ggru9783XoL7++bzEfC4fzoHBGlNA2LeBnRpaV4fpIbt9VVKmdcXiWRDWUqc1ocgLm6vL5Lm/WOHobH9uzytj9i/pw5KfQZkiZUAirh5R7EMm5cBfTjwDBDIloKXbixEEoOQJHsNSMRJiJovGlDIGaITZ87QGCCOKK0A2GSAOmhwBsh9G5C81DoDmgTCpFQuACqjajBcArsSAVRzaE7WEsU5DeiEGqVJmr2UnBTC1oo4zJGG3xJxa63SlIUgkWyp+bGBM0AnXmpZ/MzWFKUTajRsaU7RlMWRM3Q30mUFcLb2KGlWvdSHzcuAot2aE1WN3sTPkS5+vLkM6BLnOCD2jBreOU2mWoaYb5nws18blIyYwKn7DOg4BBNjI0x405gFVLM5EL1KLIQbTcocapzKkUA0I98ANCIbtY0drxXu5OkthPPaRGEmoBvKr00yiRwCW2dyIDSNuAmA2HUgKtONMpJ+BaBQcoAq1MhCVuUA6DNdG9dveCnPoW6rG7biEGZlgvQ0doY+ZOUMUIluANCq3hKTgeZGXFdApfoNdXUK0EdObQE0lzytchcAiarAsiVDPtaD2kOD3qyOWrcuasgBKnAAdJYPhhrvqYAhH87QifRZekPJWE92IYGyZCYzNkXjUM+PioCjldrKDFKUVRQrZG3tND8olSd93lRjJQKZ9vdWvt8BLBphLBRegrSFRAFIyKzcGkdLtNWeqKlvyUFWd/NonddWADLDAX7eUkXS8squdKkEKaxjCjpFc6MA6JzqyXKmkyKoFucEQgPfmS6hBCoAtDBQ5ctzTqNNrLyZLqpzbWMe32rXVRwAYNqKplC1iQlKRQpKWZvzM4AjbLVDzTJIkUPbsWmxQFTDDmZpDeUHRz8AmC7Z4RJuZWJsx1cAOqGGHZBBDcYlO4IDkBjA9NIAsBRdrhGqBrB+yVczyXXarftouNRpyfJG+Ra3so5MgqJSpikdzfcdHfycvh1D4DtxkRmxYJF1lE7XEviYtd1Rn9c78YQUebRFq4LRWR3SMH8+0K/DuJrGHOW0vWzkg5K9zXT0jshnPbs5elysV02bG4q/tV71bJ6OYX69xzv5M7MEK/r2JvK7yaIb50w7c7u+0LbZ7qfSOdWet3F9MP58R09MvMBAVswsIbynpeb/78/fB+DhdF1/v398PN72n/+ur/fx6vivgXj9Bw==);lineShape=1;" parent="1" vertex="1">
                    <mxGeometry x="443.32751820599333" y="202.08877492052204" width="45.661727853923594" height="16.05879843113712" as="geometry"/>
                </mxCell>
                <mxCell id="20" value="" style="shape=stencil(lVnbUhw3EP2afe2S1Lo+Y+c/qDIOW8HgwjiJ/95H2WgYtXYO8LY702fU95tOevPj/vb73Sm4Hy/PT3/d/XP+8nJ/0k+nEM6P93fP5xf8Ounnk958fXq++/P56efjl8v/77edsv/69vR3/8K/F5xv4ktHBffr8qSK1v8e/HGhfzg/7umL9HcTfUyEXiU3Q58DofdSq6Fv7Zi+SZ0/36SUY/IibZYW57l8TJ/G4Rt9kOyP6VWqzvRZQjymj+P0QR+8RKJ+8ONnenyByAvjuJk+S2LmclJm9UNlyXH7egvIzIHyEHAPIBb2kCFYALMxVOhmI0MNjhgBOgzVApgVwEDNFsC8VP3geAPAT0kYaLJ+rU4iOSE6yfMJODMxQJI0y6BBKrF0ctaXNIqSE1Kyzq1ZPBE6tcHABqgSiLfmKHEON6ghEUvnJm4+IYah6Ov5Qq1aobdAEkYp1nAR7k1kqEHc7N5QtFMCgGvMLKUgkeSk2kYK2gBRCmGphcHABsgjb14HwBEMAGWFBFDL4/UAZOQ9otZWpcy+lDMNUe+cNTVsWZnUYNlUqkBLYSvi5tQHTXsmRLS1E08icVcYIhlApiEHBv4vxhugSmLOVGyubI0WrLq5/w4QWQXSEfM7QCZaql58tIBKWCqLb+yMfx3hRBdDBKImAIypu2mIIZBoTKFuW2U9PGGWuvKS0mUw7lqobwDQ5oCoefR+1wF+5NINkKi7lmATTfcWJnSQFiyAlUWEcPJWhsIsrdKSVSurQSUuWaCNnu4IEIylPfVvAKwvKc3fvQbNhoO3vlG0jC819I2MJSQ6kwXyUPSRa+QFwPI3AKbKgSUa1G5klZ3Q1NIIoGbVyrJxD1HDkqcB1AFmNGmSWAC50b3sQpQaDjlicW+WvqFWk8gQQGy8gqVtzUKIMhnC0PoOQF1DF5byeHIEqMFqKfOY/iAAIW+ErqOHul6C3BiSdpZ2RAZ0CqlYgGeFOo6pagdQVnez7fp6rWdltC6DN6/s8H6b+QrNfIgvK3QcIXUdkEbN3ACOzopIKnVOZCXTGaUDZtdAhLDupC0zSt66uiOhzfiKIYSF6GtS2QCBNicwXDHteqOtbq/Kswyp8KUAsrdp1yMvu8V6a9oqxjuTwBtDTYa3zkJjbGLpHlp3sx0wmEUiQ1eiGcx0tOPXAdFOo9HTJhEiejPv8k4XHOssA+ZdJUL36XZOZMp7PkU7ZdYIeZSYo0VFrhbA0v26CukAIvS6bIEMbAW3rnMAYCytCyMAWO/dV1LLCaw58Wo7Y+UrKe9Gh7cDsJgutpnpCyEyvKJrnSNaA82sy2CpjhbpdaVWRvxdpUcomL0j31Esw7ovg8MDetMS+0BrlVr98DVosg10FGU9jw38QFc+zS7SPF2WeD++Nugd5WZdufNpeF3pOzoXrlcGjjYWoE8L/yTgQW8GVUdLQT/eG32yFR3ozZKEF+TubGroWffY2TXBNbqSd9JH2uSs/CS6zlvlzXRG6Po0m7MP2quM5cc7/aFSe334iupNevx4vQ/7en54uFyn7d/b+zM8uty96eff);lineShape=1;" parent="1" vertex="1">
                    <mxGeometry x="439.42151307596873" y="219.09184510074158" width="55.17138149611719" height="21.07793275118786" as="geometry"/>
                </mxCell>
                <mxCell id="21" value="" style="shape=stencil(lVjbUhsxDP2avGpsy/LlmdL/YIZQMqWECfT295Wb8RLLuyfwFhadXUk+OpK845vXx7uX/S6417fT8fv+9+H+7XHHX3YhHJ4f96fDm/7a8e2Obx6Op/230/Hn8/3575e7Ztl+/Tj+am/4c8b5SD41VHB/z08Kufz/wdez/dPh+dI+UHCDvffkeBtQiXm0FxLZtk9U/GhfScq2vZAb/QlMHvhTqBp7fUOEAbswAjK5CgBCacyo5iCgL1RKdQCwpwgAYTozZmIPAIXymFSOJCAGfZ8vI0BPDbjEmXy2gAK+EB0VsYCaACBSCBMABB0zJZ5cAl8QTxxHQKIAviBiud3SALIkSgST1tLJsl4MTDIeXMsbqIaULfkipkb2lA1AegWuA1IvxwWgJe5AwU1pFYYVV4TySA1J0KUyaUxy5IFLNXSPF0CgggCR0uhSEopI9QrF8eA00UiWvHNWyHKmDCqoqi4a5Y4UA/TJjSeniUMlV5N1SfMQ0VFL93gR7/ew1hGR6uiThpUROVQGxpPQsCpoWIWtulbNKwYYvmoeAqg5BViXFrpsAeLI13qlItiKZfVd3LayFEc5ro4EBS29RV1yA8Wg3EgWgNRVATYGh3Ujk7ANOgB+l2I7tda5oCwVCoYaEbb2FYAyHn/BmRhyf8VHg9YOgbI0p7XioKeDUwAsoIkaCkA9qJFvqukrBWRjKLDxrhRQgvq9UqLS59iPigB3ud2UGRN0gIP0ipBpa8eAOtU06nJNjSe9L4ganwVoQRqXlL8ZtSAN2gCWJ+sA6Q4sXbHC9aF1KAPANd2yPp50Kn0k2ipRE7TOAhmxNfYKvpg2UNDFWZkRdQmcdBY7CrTRFASdnT1pCb1jrM+VqTuwAJR84KQ1xDSmVefxCmLQEO1cqfM9iEFiH/8XQIRSqfO9Ny4xnATaBhEsgBFAF7NqAQEtNc4OTApAbNUFwzSUGOCexaGLygUACZnuimzSqlUORCDMO4rv2+P6qDttoxEPiV6X1ZF8ujYhentHyey7CZZo7lJ9sR8XtO7aSwpNMxq9ff/vxZUAStG0C4QIy9PbjtsuIYBKstU87zvVNy5l4kjTDEmnEj2Gy3DL1Y+bocfB7LcrGWfs0Y6r9sYfB6+sPNsR6Qo/2UqXCjh6f7R0c5CdfhqofN8ut+yNqgQ4f/npDo2v2hup7tPSpv2Yf8HVEu08mOB9WNOH0T5jfz5753nVXn+8X7A+HJ6ezvezl/+3F7L66HyZy7f/AA==);lineShape=1;" parent="1" vertex="1">
                    <mxGeometry x="444.8789217752851" y="239.11383490195533" width="39.87215217531502" height="19.897414654691033" as="geometry"/>
                </mxCell>
                <mxCell id="22" value="" style="shape=stencil(tVrLchw3DPyavaJAgs+z4/yHqyxHqiiSS5aT+O+NyRbHQ2C3uXvIbTVCDwkQaDw4J/nw7fHT14dT5G/vb69/Pvzz9Pn98SS/nWJ8enl8eHt6118n+XiSD19e3x7+eHv9/vL5/PfXT5vk9uuv17+3N/x7xgm1sIEi/zg/CJFS/O/J72f556eXST7ILC/E9bq8vo1n+UKxXZcP1Nokr096R/Jl3k9s1BKUL5O86H6Avio/7ycJSUH6cp7lO3Xw/kh9tk+OFAKyf5nPKwvUN1E28okCkM+U2cnLdfn9NG98fyVO97y/UejWPhH4Qyc2++dhsSvyLc7npf4D/Dmwc4hKKQNAsBZVQAAepAEYkwUwCgGNQHEAFGNpvO8AiMBIIVMKTmm0QhkqHgAFKV2oZwtoCFAtcenBBQaAPuL84BnIrJGpzVvKmBo1luusdM7QrBpsbLaEddDoKXUClDDi+zJbMOXZW0uGSotQnb21NKooH1SrQ40wgBJbhqxlxPhlgLr3fNK1UwARlzLVOYBaoIQ4sllvbQJjWj1HZrO2NHjkMiA6QIZpYWPF+aRbGZniMiAPq++ASoJWqG5LdTDVZUC357ABAAkUpu4AiIuLJkO3pYKSTx61xxEATrrsNrkV0Kn0ewDq/dGvAHyppgsHBwFKveUuQL9kVgBoynN3bUm9v3srIcAl54OAbul+Aeh7GbUDGky7Pdm0q4AG3Lu70kc3mYG3dudLuskOqLI7pbsWn3gFU02qVgxIYANUC+go7TLbAkvtwMiu3fpGx8XGBpgTRG8UF2YySuAEof+uDlAxwHQNBztcQ+Rkl4De1CmJBSRsJnFmKvisozuIFcCYqVBCtbdfIY9N3qpDIgHsesFKQhmvYM9BVu5azJY0SHHMWWeSkbtvdVdZeZ8NiLQ6OBtyeXQtd0R1WzCNUaKuzGSpSekVO5Mlvw7Lje0g2AIQl/163/8G0BSRrVlhN5oGNR5ODq4QbSungAgiyCdSXbOiBtyl6hXAFQMrgCs3FgBf0KwArmRaAVxRtgK4sm8B8IXlCuBK1xXAFccrgCu/VwBX4G8AQEy+hdiYDJDA1qQ4HRD1bW2Q40rYyiU70NxKJjQgiyNDHTMK0oEdIMKiTNtRG9MMraQNrxkLaOmKMkrSkza1boFpVHaeO3TIFQ0eymhvdwBTBkQmQmVm71pgzhK2rFFlzJqvDU/yrENlOEqMyepQKtQhRjuM1hhEKSuynVSUhCd3WtiaLQkcAPkxmQLSXYO4so+Ebhz1KQBNKkKyYzJVOiKAqhgtAM1zQrRD8g2AJqhhNG4HADQrW29VQEM1HFUzhytwstFsgJYGZ4/NDdUY2tSN4auaAFjI9boLeXeNsMkDx04umAMcMItlPJUPKNJcGHQ4j44jDA+hX1HYUDQ+nWELyrYt0VyKhqA8mpbDLBoRhavnt2sruB8zxVUCR1mQrX0ivqNgdw2Ie3q28aIhKvDaUOaUWeAtVLTuHyHHibUOj7LkingNRhzNCmRcdBzE0QDd1lAMuW2/jtstOXqSK+LGkfF1W7K1jcAMmewxJXi5m6zX4PlDssViheM1FTfFKAyRZCv8sAfxNcMblw9w92JLLE1j6Gb0/pv7lbz++PWZwJen5+fzVwbH/9vPCvTR+ZME+fgT);lineShape=1;" parent="1" vertex="1">
                    <mxGeometry x="444.85223748429325" y="257.1229220387105" width="137.03044124098665" height="14.121372025662254" as="geometry"/>
                </mxCell>
                <mxCell id="23" value="" style="shape=stencil(7VlJbtxADHzNXInuZm88Z/mHgTjxII4dOM72+9Rg0oqakiowkGNuMxJLzZ1F6aSvvtzdfL49pfDl+enx4+3387vnu5O+PqV0fri7fTo/49dJ35z01fvHp9sPT49fH95d/3++uUhefn16/HZ5wo8rzrr0ckGl8PN6JUu6Xnh7lb8/P6zlVXqd5JtkO5bvJj1O8jFIygRQJDiAioZjQDMpYQZUyZ0AVMp8QgoS2jGg4nmzj+AkJU4qXWx2UsIVolIJYnkCKPysx4CcpM0naJdGVNK8ibNKrscAxLW1GdCkRgKIkmdAiSMyuwCEKc4qlUXJfUASTTMAycdSQ6JN8jWIEhOKxDkKNQ4V96Mgybw8ywsd2q7lSVokKerlWe1Eacnba1Q+qJcvxD/BV1qxkegH8s6fkP8dwQP54J7fpRL9l7Jd5YMR/4cRnZV8Is0rSHf5VqUR/8RRUSv5RKo4jbuLfJHOOpeY0ydLYQVTfAIBwPoQMtpHrNEIoK+VuQQQ4kZM1iR9U2MsR7X5eVDzKOv9okRNuayu48x9ALzkysaoW7P5PtRgA1GppOH1BZBpIVwGyGxDa9LJCVXH7QHoQSqJdO0SZxt6kkwCh6mZ58D1PPy2zxSQ3fMJuMJmGqhFniONK5UYbei/c7/AlU7mAW7nOQ5WJTC2k0e/XQCNkpGLDXMcQLAy95LLVjN+QvAEDAA2NcHAnA0xLI12H4GaL/6Ixjhb3bjJJJJGCZIXm3cTm7R9aXSryLGSA8Clq5UxHY8A3q+Z0hfY0JxKOnjikVuDUylJJbyzo7k2D6DkPGwKItEBZHFjA1Ri6aoSqjdaiQ24bebdmklq2F7gqEp5cKhVarBeCZXapkYZ/7cN2UZ6B1IPcKs2D2DEATXqVTKe3n1TQOgCLJfqGAfrPkO424sBGJrRdbI4yMHRzHJeghsiOQFTMc7pfVGSxKGoXwC6UpXyZmNonM5giSpusjfqJd3sw6ACRlJDi0++lih30OgbGSJjjIU2r1Jt1GjsMX02uhYaB2x6bpesibZK82wGiwnbPf8vbv98cSte/v/ito7vyxY39ewF8pVxi82rFDyBxCtiajuFkHBkHMTuI5xxhW+G7oSc6eBHG3IkMoOdMB/ZIMrLK61C3+OhWbt9QQNdYeB0t/OgcTByji7l8g6ZxVRCp3WJgRWc7Z6tjBdSCyDRjeSy1rnBP3rBEUv1yy0n2ubfE/KJCXIW5ucHvhUWnxZhrIn78tWHIHDqBZJtXp6tU823ijBIxr589600jAVuX962+rC93My3ijho1ZG8m/ZL3e0Xftj0ajQzxsdt8y57cNUj+eYTSFnAzLNApRXz4g8Wf5XHjz9fR96f7++vH1fW9/3XFFy6fonRN78A);lineShape=1;" parent="1" vertex="1">
                    <mxGeometry x="527.4204548076402" y="255.34880521761136" width="21.229942926639524" height="27.329651602044805" as="geometry"/>
                </mxCell>
                <mxCell id="24" value="" style="shape=stencil(rVfLbhsxDPwaXwlR1IvnNP2PAHFqo24cOOnr78utq7XF9U4QoLf1LseiRkNytJG7193Dy3YTw+vb6fh1+3P/+LbbyKdNjPvn3fa0f7Onjdxv5O7peNp+OR2/Pz+ef788TJHT07fjj+kffp1xkanKhIrh9783VMrfF5/P8Yf983V8pqxDfKMs6/ESSXmI50Ra1wEpUs1jQkwhrANyoTBmFCtxXgfUQBwGgAiFtg5oiVIdAY0UAJQpjyvYrhJgSS3jOAIKCdiDKunIUg6kaR3AIXQWZ0SmChBaqI28lkAV7dqUM65QMtRSK1RHXu1ocgQA+5xGQCYGe6hMbVSf/QWDlIr0jGdA6kzflmsgaQNAGwkqiEZhXMHOkgGtYgmoB1SwB2FKY0pXh3+7qCtp9Es0kFNMniYDJAaASCF7mgrgNRqvboUKxcTaxTkDCmXUyUKvsBmQKSGA7WFslZo606ssOYBQRSxVX3IGiEDf01FnD2BQQZOYigcIElNbbFpIgb7T8uASbBuJqag/hwZYMoBnqbyXko5tw8SH6mFq7+IBaAWxGTR2MquHglawXrkAKBKf+in3HsB6b1ukhEu0fWjTVkCuuU60ghWsRJs7hwKHlq3gxWfSAPI2q3BDfPofAckKcqy4xrCmM/vOVwush2zzY2zGNZIALRXxai0V0lpaH/wzwPoSoPWSwOwdtNNwG5AW9iRSBHuwwe9oNQOUwQq59oxnQIDytoPzJm62dWsVl0ZpTGMSTVHun2dAgr2VZ+XMg7qSIG/srbFCK22cjhtI0CwtDKJ0Ia6EO+MTKaPi9+EM3Wf0mmZo0RdjbXaKt+XWLdolHFkw9fYI2yk2JqqPB0yymVifTgSN11Tipn7oRmOt74o6Mhk1RWvs2cVDN/jRO+S78fZwubA+7Q+H8333+ru/4Nqr8+VY7v8A);lineShape=1;" parent="1" vertex="1">
                    <mxGeometry x="526.1356962510163" y="184.13959756160546" width="7.861744678345303" height="25.29305141658972" as="geometry"/>
                </mxCell>
            </root>
        </mxGraphModel>
    </diagram>
</mxfile>